<svg width="16" height="19" viewBox="0 0 16 19" fill="none" xmlns="http://www.w3.org/2000/svg">
<path d="M2.29112e-06 17.569V0.910014C-0.000184479 0.746741 0.0446085 0.586432 0.129675 0.445932C0.214741 0.305433 0.336939 0.18993 0.48343 0.111559C0.629921 0.0331891 0.795297 -0.00515487 0.962179 0.000556406C1.12906 0.00626769 1.29129 0.0558234 1.43182 0.144016L14.7498 8.47399C14.8815 8.55613 14.99 8.66942 15.0651 8.80339C15.1403 8.93736 15.1797 9.08769 15.1797 9.24049C15.1797 9.39329 15.1403 9.54362 15.0651 9.67759C14.99 9.81156 14.8815 9.92485 14.7498 10.007L1.43182 18.336C1.29122 18.4242 1.12889 18.4738 0.961923 18.4794C0.794952 18.4851 0.629504 18.4467 0.48298 18.3682C0.336457 18.2897 0.214274 18.174 0.129282 18.0334C0.0442905 17.8928 -0.000368571 17.7323 2.29112e-06 17.569V17.569Z" fill="#FD695A"/>
</svg>
