<svg width="72" height="72" viewBox="0 0 72 72" fill="none" xmlns="http://www.w3.org/2000/svg">
<circle cx="35.5193" cy="35.5193" r="35.5193" fill="#7879F1" fill-opacity="0.06"/>
<g clip-path="url(#clip0_9109_215)">
<path d="M51.8864 54H16.1133C15.4984 54 15 53.5015 15 52.8867C15 52.2719 15.4984 51.7734 16.1133 51.7734H51.8864C52.5013 51.7734 52.9997 52.2719 52.9997 52.8867C52.9997 53.5015 52.5013 54 51.8864 54Z" fill="#7879F1"/>
<path d="M22.8669 54H18.4138C17.799 54 17.3005 53.5016 17.3005 52.8868V44.7228C17.3005 43.6997 18.1329 42.8673 19.156 42.8673H22.1247C23.1478 42.8673 23.9802 43.6997 23.9802 44.7228V52.8868C23.9802 53.5016 23.4817 54 22.8669 54ZM19.5271 51.7735H21.7536V45.0939H19.5271V51.7735ZM22.1247 45.0939H22.1255H22.1247Z" fill="#7879F1"/>
<path d="M31.7731 54H27.32C26.7052 54 26.2067 53.5016 26.2067 52.8867V42.0509C26.2067 41.0278 27.0391 40.1954 28.0622 40.1954H31.0309C32.054 40.1954 32.8864 41.0278 32.8864 42.0509V52.8867C32.8864 53.5016 32.3879 54 31.7731 54ZM28.4333 51.7735H30.6598V42.422H28.4333V51.7735ZM31.0309 42.422H31.0316H31.0309Z" fill="#7879F1"/>
<path d="M40.6793 54H36.2262C35.6114 54 35.113 53.5015 35.113 52.8867V37.9689C35.113 36.9458 35.9453 36.1134 36.9684 36.1134H39.9372C40.9603 36.1134 41.7926 36.9458 41.7926 37.9689V52.8867C41.7926 53.5015 41.2942 54 40.6793 54ZM37.3395 51.7734H39.5661V38.3399H37.3395V51.7734ZM39.9372 38.3399H39.9379H39.9372Z" fill="#7879F1"/>
<path d="M49.5855 54.0001H45.1324C44.5176 54.0001 44.0191 53.5016 44.0191 52.8868V30.5471C44.0191 29.524 44.8515 28.6917 45.8746 28.6917H48.8433C49.8664 28.6917 50.6987 29.524 50.6987 30.5471V52.8868C50.6987 53.5016 50.2003 54.0001 49.5855 54.0001ZM46.2456 51.7735H48.4722V30.9182H46.2456V51.7735ZM48.8433 30.9182H48.844H48.8433Z" fill="#7879F1"/>
<path d="M16.1133 39.9215C15.4984 39.9215 15 39.423 15 38.8082C15 38.1934 15.4984 37.6949 16.1133 37.6949C22.6598 37.6949 29.7875 35.311 36.1834 30.9824C42.0675 27.0002 46.7562 21.7797 49.0471 16.6595C49.2983 16.0983 49.9568 15.8468 50.518 16.098C51.0792 16.3491 51.3306 17.0076 51.0795 17.5689C48.6239 23.0571 43.6493 28.6183 37.4314 32.8264C30.6709 37.4017 23.0999 39.9215 16.1133 39.9215Z" fill="#7879F1"/>
<path d="M51.8855 25.0307C51.3939 25.0307 50.9441 24.7026 50.8109 24.2052L49.276 18.477L43.5477 20.0119C42.9536 20.1711 42.3434 19.8186 42.1843 19.2247C42.0251 18.6308 42.3775 18.0204 42.9714 17.8613L49.775 16.0382C50.3691 15.879 50.9794 16.2316 51.1385 16.8254L52.9615 23.629C53.1206 24.2229 52.7682 24.8333 52.1743 24.9924C52.0778 25.0183 51.9809 25.0307 51.8855 25.0307V25.0307Z" fill="#7879F1"/>
</g>
<defs>
<clipPath id="clip0_9109_215">
<rect width="38" height="38" fill="white" transform="translate(15 16)"/>
</clipPath>
</defs>
</svg>
