<svg width="72" height="72" viewBox="0 0 72 72" fill="none" xmlns="http://www.w3.org/2000/svg">
<circle cx="35.5193" cy="35.5193" r="35.5193" fill="#E9F6EE"/>
<g clip-path="url(#clip0_9108_204)">
<path d="M53.0636 25.0729L55.0036 23.1332C55.3259 22.8106 55.4321 22.3303 55.2755 21.9021C55.119 21.4736 54.728 21.1752 54.2733 21.1367L50.6744 20.8331L50.3707 17.2341C50.3326 16.7797 50.0338 16.3888 49.6057 16.2322C49.1775 16.0754 48.6971 16.1816 48.3746 16.5042L46.4346 18.4438C43.2974 16.5203 39.7103 15.5074 36 15.5074C30.6579 15.5074 25.6353 17.5878 21.8578 21.3653C18.0804 25.1428 16 30.1653 16 35.5074C16 40.8495 18.0804 45.8721 21.8578 49.6496C25.6353 53.4271 30.6579 55.5074 36 55.5074C41.3421 55.5074 46.3647 53.4271 50.1422 49.6496C53.9196 45.8721 56 40.8495 56 35.5074C56 31.7971 54.9871 28.2104 53.0636 25.0729ZM48.4219 22.0162C48.4701 22.5857 48.9218 23.0374 49.4912 23.0856L51.5618 23.2601L48.7591 26.0629L45.7025 25.805L45.4446 22.7484L48.2473 19.9456L48.4219 22.0162ZM39.9844 35.5074C39.9844 37.7044 38.197 39.4918 36 39.4918C33.803 39.4918 32.0156 37.7044 32.0156 35.5074C32.0156 33.3105 33.803 31.5231 36 31.5231C36.6729 31.5231 37.3068 31.6912 37.8631 31.9869L35.1714 34.6789C34.7137 35.1364 34.7137 35.8782 35.1714 36.336C35.4 36.5649 35.7 36.6793 36 36.6793C36.3 36.6793 36.6 36.5649 36.8286 36.336L39.5205 33.6443C39.8162 34.2007 39.9844 34.8345 39.9844 35.5074V35.5074ZM39.5666 30.2834C38.5504 29.5876 37.322 29.1793 36 29.1793C32.5106 29.1793 29.6719 32.0181 29.6719 35.5074C29.6719 38.9968 32.5106 41.8356 36 41.8356C39.4894 41.8356 42.3281 38.9968 42.3281 35.5074C42.3281 34.1854 41.9198 32.9571 41.224 31.9409L44.5699 28.5949C46.0986 30.4864 47.0156 32.8918 47.0156 35.5074C47.0156 41.5814 42.0739 46.5231 36 46.5231C29.9261 46.5231 24.9844 41.5814 24.9844 35.5074C24.9844 29.4335 29.9261 24.4918 36 24.4918C38.6157 24.4918 41.0211 25.4089 42.9125 26.9375L39.5666 30.2834ZM48.4847 47.9922C45.1501 51.3271 40.7162 53.1637 36 53.1637C31.2838 53.1637 26.8499 51.3271 23.5153 47.9922C20.1803 44.6575 18.3438 40.2236 18.3438 35.5074C18.3438 30.7913 20.1803 26.3574 23.5153 23.0227C26.8499 19.6877 31.2838 17.8512 36 17.8512C39.0853 17.8512 42.0739 18.6437 44.7244 20.1541L43.4026 21.4758C43.189 21.6894 43.0673 21.9756 43.0596 22.2744C43.0587 22.3171 43.0599 22.3599 43.0633 22.4029L43.2211 24.2727C41.1376 22.9287 38.6584 22.1481 36 22.1481C28.6337 22.1481 22.6406 28.1411 22.6406 35.5074C22.6406 42.8738 28.6337 48.8668 36 48.8668C43.3663 48.8668 49.3594 42.8738 49.3594 35.5074C49.3594 32.8491 48.5787 30.3698 47.2347 28.2864L49.1046 28.4442C49.1375 28.4466 49.1705 28.4481 49.2031 28.4481C49.2086 28.4481 49.2144 28.4475 49.2199 28.4472C49.2355 28.4472 49.2507 28.446 49.2663 28.4451C49.2916 28.4435 49.3173 28.442 49.3423 28.439C49.3578 28.4368 49.3734 28.4344 49.389 28.4319C49.4137 28.428 49.4381 28.4234 49.4625 28.4179C49.4781 28.4142 49.4933 28.4103 49.5086 28.4063C49.5324 28.3999 49.5559 28.3926 49.5794 28.3846C49.5947 28.3795 49.6096 28.3743 49.6246 28.3685C49.6475 28.3596 49.67 28.3499 49.6926 28.3392C49.707 28.3328 49.7213 28.3264 49.7357 28.319C49.7582 28.3074 49.7802 28.2946 49.8019 28.2818C49.815 28.2739 49.8281 28.2665 49.8409 28.2586C49.8641 28.2433 49.8864 28.2269 49.9087 28.2101C49.9191 28.2021 49.9297 28.1951 49.9398 28.1869C49.9716 28.1613 50.0024 28.1341 50.0317 28.1048L51.3534 26.7831C52.8637 29.4335 53.6562 32.4221 53.6562 35.5074C53.6562 40.2236 51.8197 44.6575 48.4847 47.9922V47.9922Z" fill="#34D27B"/>
</g>
<defs>
<clipPath id="clip0_9108_204">
<rect width="40" height="40" fill="white" transform="translate(16 15.5074)"/>
</clipPath>
</defs>
</svg>
