<svg width="72" height="72" viewBox="0 0 72 72" fill="none" xmlns="http://www.w3.org/2000/svg">
<circle cx="35.5193" cy="35.5193" r="35.5193" fill="#BC5C56" fill-opacity="0.06"/>
<path d="M55.4882 35.0258C55.4873 34.6201 55.2766 34.2437 54.9313 34.0307L50.8661 31.5248L54.9356 28.9919C55.2788 28.7783 55.4876 28.403 55.4882 27.9988C55.4888 27.5946 55.2811 27.2186 54.9385 27.004L36.1105 15.2071C35.7299 14.9687 35.2466 14.9687 34.866 15.2071L16.038 27.004C15.6955 27.2186 15.4877 27.5946 15.4883 27.9988C15.4889 28.403 15.6977 28.7784 16.0409 28.9919L20.0825 31.5074L16.0391 34.0347C15.6962 34.249 15.488 34.625 15.4884 35.0295C15.4888 35.4339 15.6977 35.8096 16.041 36.0233L20.0826 38.5388L16.0391 41.0659C15.6967 41.2799 15.4886 41.6552 15.4884 42.059C15.4881 42.4628 15.6959 42.8383 16.038 43.0527L34.8661 54.8495C35.0564 54.9687 35.2723 55.0283 35.4883 55.0283C35.7042 55.0283 35.9202 54.9687 36.1105 54.8495L54.9385 43.0527C55.2818 42.8376 55.4897 42.4604 55.4882 42.0553C55.4867 41.6502 55.2761 41.2746 54.9313 41.062L50.8661 38.5561L54.9356 36.0232C55.28 35.8089 55.4891 35.4315 55.4882 35.0258ZM18.8726 27.9939L35.4883 17.5832L52.1039 27.9939C51.9442 28.0933 35.9645 38.0392 35.4883 38.3356L18.8726 27.9939ZM52.0963 42.0677L35.4883 52.4736L18.8694 42.0609L22.2982 39.9178L34.8691 47.742C35.0586 47.86 35.2734 47.919 35.4883 47.919C35.7031 47.919 35.918 47.86 36.1075 47.742L48.6437 39.9394L52.0963 42.0677ZM35.4883 45.3668L18.8746 35.0264L22.2982 32.8866L34.8691 40.7108C35.0586 40.8288 35.2734 40.8878 35.4883 40.8878C35.7031 40.8878 35.918 40.8288 36.1075 40.7108L48.6437 32.9082L52.091 35.0332C51.9957 35.0925 35.9281 45.093 35.4883 45.3668Z" fill="#FD695A" stroke="#FD695A" stroke-width="0.5"/>
</svg>
