<svg width="72" height="72" viewBox="0 0 72 72" fill="none" xmlns="http://www.w3.org/2000/svg">
<circle cx="35.5193" cy="35.5193" r="35.5193" fill="#68CDFD" fill-opacity="0.08"/>
<path d="M30.0346 38.2852L32.9411 35.81L30.0346 38.2852ZM30.0346 38.2852L32.9413 40.7605C32.9413 40.7605 32.9413 40.7605 32.9413 40.7605C33.2826 41.0511 33.3234 41.5632 33.0332 41.9041L33.0332 41.9041C32.8725 42.0928 32.6439 42.1897 32.4149 42.1897C32.2291 42.1897 32.0418 42.1257 31.8895 41.996C31.8895 41.996 31.8895 41.996 31.8895 41.996L28.2572 38.9031L28.2571 38.903C28.0761 38.7487 27.9719 38.5232 27.9719 38.2852C27.9719 38.0471 28.0766 37.8219 28.2568 37.6679L28.2572 37.6676L31.8894 34.5748C31.8894 34.5747 31.8894 34.5747 31.8895 34.5747C32.2306 34.2839 32.7426 34.3254 33.033 34.6661L33.0333 34.6664C33.3232 35.0074 33.2828 35.5193 32.9413 35.8099L30.0346 38.2852Z" fill="#53C8FF" stroke="#53C8FF" stroke-width="0.5"/>
<path d="M41.9655 38.2852L39.0588 40.7605L39.0587 40.7606C38.718 41.051 38.6765 41.563 38.9672 41.9041C38.9673 41.9041 38.9673 41.9042 38.9673 41.9043L39.1576 41.7421C39.2685 41.8727 39.4263 41.9397 39.5852 41.9397C39.7136 41.9397 39.843 41.8955 39.9485 41.8056M41.9655 38.2852L40.1106 41.996L39.9485 41.8056M41.9655 38.2852L39.0588 35.8099C39.0588 35.8099 39.0588 35.8099 39.0588 35.8099C38.7177 35.5195 38.6767 35.0075 38.9672 34.6662L41.9655 38.2852ZM39.9485 41.8056L40.1106 41.996M39.9485 41.8056L40.1106 41.996M40.1106 41.996L43.7429 38.9031L43.743 38.903C43.924 38.7487 44.0282 38.5232 44.0282 38.2852C44.0282 38.0474 43.9239 37.8219 43.743 37.6677L43.7429 37.6676L40.1108 34.5749C40.1108 34.5748 40.1107 34.5748 40.1107 34.5748C39.7699 34.2839 39.2574 34.3253 38.9672 34.6662L40.1106 41.996Z" fill="#53C8FF" stroke="#53C8FF" stroke-width="0.5"/>
<path d="M34.5459 44.492L34.5466 44.4921C34.6018 44.5036 34.6577 44.5096 34.714 44.5096C35.0896 44.5096 35.4265 44.2476 35.5071 43.8654L35.5071 43.8654L37.7709 33.1172L37.7709 33.1172C37.8632 32.6786 37.5825 32.2484 37.1443 32.1561L37.1442 32.1561C36.7056 32.0637 36.2755 32.3444 36.1831 32.7827L36.1831 32.7827L33.9193 43.5308C33.9193 43.5308 33.9193 43.5308 33.9193 43.5308C33.827 43.9691 34.1076 44.3996 34.5459 44.492Z" fill="#53C8FF" stroke="#53C8FF" stroke-width="0.5"/>
<path d="M22.7689 50.3651H49.2311C51.4472 50.3651 53.25 48.5627 53.25 46.3463V23.8865C53.25 21.6705 51.4472 19.8677 49.2311 19.8677H22.7689C20.5528 19.8677 18.75 21.6705 18.75 23.8865V46.3463C18.75 48.5627 20.5528 50.3651 22.7689 50.3651ZM20.3726 23.8865C20.3726 22.5656 21.4479 21.4903 22.7689 21.4903H49.2311C50.5521 21.4903 51.6274 22.5656 51.6274 23.8865V46.3463C51.6274 47.6673 50.5521 48.7425 49.2311 48.7425H22.7689C21.4479 48.7425 20.3726 47.6673 20.3726 46.3463V23.8865Z" fill="#53C8FF" stroke="#53C8FF" stroke-width="0.5"/>
<path d="M19.5613 29.356H52.4387C52.8869 29.356 53.25 28.9929 53.25 28.5447C53.25 28.0969 52.8869 27.7334 52.4387 27.7334H19.5613C19.1131 27.7334 18.75 28.0969 18.75 28.5447C18.75 28.9929 19.1131 29.356 19.5613 29.356Z" fill="#53C8FF" stroke="#53C8FF" stroke-width="0.5"/>
<path d="M29.8769 26.42C28.8977 26.42 28.1005 25.6229 28.1005 24.6437C28.1005 23.6642 28.8977 22.8673 29.8769 22.8673C30.8564 22.8673 31.6533 23.6642 31.6533 24.6437C31.6533 25.6229 30.8564 26.42 29.8769 26.42ZM29.8769 23.99C29.5167 23.99 29.2232 24.2831 29.2232 24.6437C29.2232 25.0042 29.5167 25.2974 29.8769 25.2974C30.2374 25.2974 30.5306 25.0042 30.5306 24.6437C30.5306 24.2831 30.2374 23.99 29.8769 23.99Z" fill="#53C8FF"/>
<path d="M24.4191 26.4028C23.4396 26.4028 22.6428 25.606 22.6428 24.6265C22.6428 23.647 23.4396 22.8501 24.4191 22.8501C25.3986 22.8501 26.1955 23.647 26.1955 24.6265C26.1955 25.606 25.3986 26.4028 24.4191 26.4028ZM24.4191 23.9727C24.0589 23.9727 23.7654 24.2662 23.7654 24.6265C23.7654 24.987 24.0589 25.2802 24.4191 25.2802C24.7797 25.2802 25.0729 24.987 25.0729 24.6265C25.0729 24.2662 24.7797 23.9727 24.4191 23.9727Z" fill="#53C8FF"/>
<path d="M35.3351 26.4371C34.356 26.4371 33.5591 25.6402 33.5591 24.6607C33.5591 23.6815 34.356 22.8846 35.3351 22.8846C36.3146 22.8846 37.1115 23.6815 37.1115 24.6607C37.1115 25.6402 36.3146 26.4371 35.3351 26.4371ZM35.3351 24.007C34.9749 24.007 34.6817 24.3002 34.6817 24.6607C34.6817 25.0212 34.9749 25.3144 35.3351 25.3144C35.6957 25.3144 35.9889 25.0212 35.9889 24.6607C35.9889 24.3002 35.6957 24.007 35.3351 24.007Z" fill="#53C8FF"/>
</svg>
